# xmcd CD database file
#
# Track frame offsets:
#	150
#	15372
#	34810
#	44679
#	65363
#	82692
#	93679
#	106016
#	120307
#	136330
#	147045
#	159844
#	170437
#
# Disc length: 2453 seconds
#
# Revision: 0
# Processed by: cddbd v1.5.1PL2 Copyright (c) Steve Scherf et al.
# Submitted via: CDex 1.51
#
DISCID=9609930d
DTITLE=Jamie Hoover - Jamie Hoo-ever
DYEAR=2004
DGENRE=Rock
TTITLE0=Handle With Care
TTITLE1=Silly boys
TTITLE2=It's Love, Come What May
TTITLE3=Sukiyaki
TTITLE4=It's Only A Northern Song
TTITLE5=Izzat Love?
TTITLE6=Elusive butterfly
TTITLE7=Barbara Allen
TTITLE8=Horizon
TTITLE9=Theme From A Summer Place
TTITLE10=Cathy's Clown
TTITLE11=You Were On My Mind
TTITLE12=Goodnight
EXTD=YEAR: 2004
EXTT0=
EXTT1=
EXTT2=
EXTT3=
EXTT4=
EXTT5=
EXTT6=
EXTT7=
EXTT8=
EXTT9=
EXTT10=
EXTT11=
EXTT12=
PLAYORDER=
